<svg width="7" height="12" viewBox="0 0 7 12" fill="none" xmlns="http://www.w3.org/2000/svg">
<path d="M0.292021 9.46202L4.17202 5.58202L0.292021 1.70202C0.199439 1.60944 0.125999 1.49953 0.0758944 1.37856C0.0257894 1.2576 9.75511e-10 1.12795 0 0.997021C-9.75506e-10 0.86609 0.0257894 0.736442 0.0758944 0.615478C0.125999 0.494513 0.199439 0.384603 0.292021 0.292021C0.384603 0.199439 0.494513 0.125999 0.615478 0.0758939C0.736442 0.0257889 0.86609 -9.75508e-10 0.997021 0C1.12795 9.7551e-10 1.2576 0.0257889 1.37856 0.0758939C1.49953 0.125999 1.60944 0.199439 1.70202 0.292021L6.29202 4.88202C6.68202 5.27202 6.68202 5.90202 6.29202 6.29202L1.70202 10.882C1.60951 10.9747 1.49962 11.0483 1.37864 11.0985C1.25767 11.1486 1.12799 11.1745 0.997021 11.1745C0.866052 11.1745 0.73637 11.1486 0.615396 11.0985C0.494423 11.0483 0.384534 10.9747 0.292021 10.882C-0.0879792 10.492 -0.0979792 9.85202 0.292021 9.46202Z" fill="#191919"/>
</svg>
