<svg width="20" height="20" viewBox="0 0 20 20" fill="none" xmlns="http://www.w3.org/2000/svg">
<path d="M9.59683 1.6766C5.17187 1.88493 1.68104 5.54326 1.69437 9.94073C1.69657 11.2351 2.00647 12.5106 2.59854 13.6616L1.71687 17.9124C1.70612 17.9656 1.70893 18.0206 1.72507 18.0723C1.74119 18.1241 1.77012 18.171 1.80916 18.2086C1.8482 18.2462 1.8961 18.2734 1.94843 18.2876C2.00076 18.3018 2.05582 18.3026 2.10854 18.2899L6.30354 17.3032C7.41461 17.8523 8.63433 18.1461 9.8735 18.1632C14.396 18.2324 18.166 14.6674 18.3068 10.1799C18.4585 5.36743 14.4593 1.44576 9.59683 1.67576V1.6766ZM14.6027 14.4824C13.9981 15.0849 13.2806 15.5621 12.4912 15.8866C11.7018 16.2113 10.8562 16.3769 10.0027 16.3741C8.99858 16.3771 8.00744 16.1466 7.10771 15.7007L6.52354 15.4116L3.95104 16.0166L4.49271 13.4074L4.20437 12.8474C3.73696 11.9414 3.49457 10.9361 3.49771 9.91656C3.49771 8.1916 4.17437 6.5691 5.40271 5.34993C6.62703 4.13801 8.28 3.45796 10.0027 3.45743C11.741 3.45743 13.3743 4.1291 14.6027 5.3491C15.2079 5.94546 15.6881 6.65647 16.0153 7.44057C16.3426 8.22466 16.5102 9.06615 16.5085 9.91573C16.5085 11.6257 15.8211 13.2741 14.6027 14.4832V14.4824Z" fill="#626261"/>
<path d="M14.0354 11.7041L12.4262 11.2458C12.3224 11.216 12.2124 11.2146 12.1079 11.2419C12.0034 11.2692 11.908 11.324 11.832 11.4008L11.4387 11.7991C11.3573 11.8815 11.2534 11.9382 11.14 11.9619C11.0266 11.9856 10.9088 11.9754 10.8012 11.9325C10.0404 11.6266 8.43869 10.2133 8.02951 9.50579C7.97215 9.40587 7.94595 9.29104 7.95426 9.17612C7.96258 9.06121 8.00503 8.95146 8.07617 8.86079L8.41952 8.41912C8.48561 8.33454 8.52744 8.23348 8.54052 8.12691C8.55352 8.02033 8.53736 7.91221 8.49369 7.81412L7.81701 6.29412C7.77874 6.20917 7.72128 6.13424 7.64916 6.07524C7.57704 6.01624 7.49221 5.97478 7.40136 5.95411C7.3105 5.93343 7.21609 5.93411 7.12554 5.95609C7.03499 5.97807 6.95077 6.02076 6.8795 6.08079C6.43034 6.45829 5.89701 7.03079 5.83284 7.66662C5.71867 8.78579 6.20201 10.1966 8.03034 11.8916C10.1429 13.8491 11.8354 14.1083 12.9362 13.8425C13.5612 13.6925 14.0612 13.09 14.3754 12.5975C14.4256 12.5192 14.4568 12.4303 14.4664 12.3378C14.476 12.2454 14.4638 12.1519 14.4307 12.065C14.3976 11.9781 14.3446 11.9002 14.2759 11.8375C14.2073 11.7749 14.1249 11.7291 14.0354 11.7041Z" fill="#626261"/>
</svg>
