<svg width="20" height="20" viewBox="0 0 20 20" fill="none" xmlns="http://www.w3.org/2000/svg">
<path d="M17.6562 2.65625H2.34375C1.05141 2.65625 0 3.70766 0 5V15C0 16.2923 1.05141 17.3438 2.34375 17.3438H17.6562C18.9486 17.3438 20 16.2923 20 15V5C20 3.70766 18.9486 2.65625 17.6562 2.65625ZM18.4375 15C18.4375 15.4308 18.087 15.7812 17.6562 15.7812H2.34375C1.91297 15.7812 1.5625 15.4308 1.5625 15V5C1.5625 4.56922 1.91297 4.21875 2.34375 4.21875H17.6562C18.087 4.21875 18.4375 4.56922 18.4375 5V15Z" fill="#626261"/>
<path d="M18.3048 3.63037L10 9.80759L1.69515 3.63037L0.762573 4.88408L10 11.7549L19.2374 4.88408L18.3048 3.63037Z" fill="#626261"/>
</svg>
