<svg width="20" height="20" viewBox="0 0 20 20" fill="none" xmlns="http://www.w3.org/2000/svg">
<path d="M17.1129 10.6766H15.5662C15.7238 11.1082 15.81 11.574 15.81 12.0596V17.9053C15.81 18.1077 15.7747 18.302 15.7106 18.4827H18.2677C19.2229 18.4827 20 17.7056 20 16.7504V13.5637C20 11.9717 18.7049 10.6766 17.1129 10.6766Z" fill="#4C4C4C"/>
<path d="M4.19005 12.0596C4.19005 11.574 4.27618 11.1083 4.43384 10.6766H2.88712C1.29516 10.6766 0 11.9718 0 13.5637V16.7505C0 17.7057 0.777072 18.4828 1.73227 18.4828H4.28938C4.22528 18.302 4.19005 18.1077 4.19005 17.9053V12.0596V12.0596Z" fill="#4C4C4C"/>
<path d="M11.768 9.17248H8.23199C6.64004 9.17248 5.34488 10.4676 5.34488 12.0596V17.9053C5.34488 18.2242 5.6034 18.4827 5.9223 18.4827H14.0777C14.3966 18.4827 14.6551 18.2242 14.6551 17.9053V12.0596C14.6551 10.4676 13.36 9.17248 11.768 9.17248Z" fill="#4C4C4C"/>
<path d="M10 1.51719C8.08547 1.51719 6.52789 3.07477 6.52789 4.98935C6.52789 6.28798 7.24465 7.42217 8.30317 8.01764C8.80524 8.30006 9.38407 8.46146 10 8.46146C10.6159 8.46146 11.1948 8.30006 11.6968 8.01764C12.7554 7.42217 13.4721 6.28794 13.4721 4.98935C13.4721 3.07481 11.9145 1.51719 10 1.51719Z" fill="#4C4C4C"/>
<path d="M3.90305 4.75349C2.47121 4.75349 1.30637 5.91833 1.30637 7.35017C1.30637 8.78201 2.47121 9.94686 3.90305 9.94686C4.26625 9.94686 4.61211 9.87162 4.92629 9.73639C5.4695 9.50252 5.91739 9.08854 6.19454 8.56998C6.38907 8.20603 6.49974 7.79084 6.49974 7.35017C6.49974 5.91837 5.33489 4.75349 3.90305 4.75349Z" fill="#4C4C4C"/>
<path d="M16.097 4.75349C14.6652 4.75349 13.5003 5.91833 13.5003 7.35017C13.5003 7.79088 13.611 8.20607 13.8055 8.56998C14.0827 9.08857 14.5305 9.50256 15.0737 9.73639C15.3879 9.87162 15.7338 9.94686 16.097 9.94686C17.5288 9.94686 18.6937 8.78201 18.6937 7.35017C18.6937 5.91833 17.5288 4.75349 16.097 4.75349Z" fill="#4C4C4C"/>
</svg>
