<svg width="24" height="24" viewBox="0 0 24 24" fill="none" xmlns="http://www.w3.org/2000/svg">
<path d="M11.5162 2.01194C6.20625 2.26194 2.01725 6.65194 2.03325 11.9289C2.03588 13.4822 2.40777 15.0127 3.11825 16.3939L2.06025 21.4949C2.04734 21.5587 2.05072 21.6247 2.07008 21.6868C2.08943 21.749 2.12414 21.8052 2.17099 21.8504C2.21784 21.8955 2.27532 21.9281 2.33812 21.9452C2.40091 21.9622 2.46699 21.9632 2.53025 21.9479L7.56425 20.7639C8.89753 21.4228 10.3612 21.7754 11.8482 21.7959C17.2752 21.8789 21.7992 17.6009 21.9682 12.2159C22.1502 6.44094 17.3512 1.73494 11.5162 2.01094V2.01194ZM17.5232 17.3789C16.7977 18.1019 15.9367 18.6745 14.9895 19.064C14.0422 19.4536 13.0274 19.6523 12.0032 19.6489C10.7983 19.6526 9.60893 19.376 8.52925 18.8409L7.82825 18.4939L4.74125 19.2199L5.39125 16.0889L5.04525 15.4169C4.48435 14.3297 4.19348 13.1234 4.19725 11.8999C4.19725 9.82994 5.00925 7.88294 6.48325 6.41994C7.95244 4.96564 9.936 4.14958 12.0032 4.14894C14.0892 4.14894 16.0492 4.95494 17.5232 6.41894C18.2495 7.13458 18.8257 7.98779 19.2184 8.92871C19.6111 9.86962 19.8123 10.8794 19.8102 11.8989C19.8102 13.9509 18.9853 15.9289 17.5232 17.3799V17.3789Z" fill="white"/>
<path d="M16.8424 14.045L14.9114 13.495C14.7868 13.4592 14.6548 13.4576 14.5294 13.4903C14.404 13.5231 14.2896 13.5889 14.1984 13.681L13.7264 14.159C13.6287 14.2579 13.5041 14.3259 13.368 14.3543C13.2319 14.3828 13.0905 14.3705 12.9614 14.319C12.0484 13.952 10.1264 12.256 9.63538 11.407C9.56655 11.2871 9.53511 11.1493 9.54509 11.0114C9.55507 10.8735 9.60601 10.7418 9.69138 10.633L10.1034 10.103C10.1827 10.0015 10.2329 9.88023 10.2486 9.75234C10.2642 9.62445 10.2448 9.4947 10.1924 9.377L9.38038 7.553C9.33446 7.45105 9.26551 7.36114 9.17896 7.29034C9.09242 7.21954 8.99063 7.16979 8.8816 7.14498C8.77257 7.12017 8.65928 7.12098 8.55062 7.14736C8.44196 7.17374 8.3409 7.22496 8.25538 7.297C7.71638 7.75 7.07638 8.437 6.99938 9.2C6.86238 10.543 7.44238 12.236 9.63638 14.27C12.1714 16.619 14.2024 16.93 15.5234 16.611C16.2734 16.431 16.8734 15.708 17.2504 15.117C17.3107 15.0231 17.3481 14.9164 17.3596 14.8054C17.3712 14.6945 17.3565 14.5823 17.3168 14.4781C17.2771 14.3738 17.2135 14.2803 17.1311 14.2051C17.0487 14.1299 16.9498 14.075 16.8424 14.045Z" fill="white"/>
</svg>
