<svg width="19" height="20" viewBox="0 0 19 20" fill="none" xmlns="http://www.w3.org/2000/svg">
<path d="M16.5 18C16.5 19.11 15.61 20 14.5 20H4.5C3.96957 20 3.46086 19.7893 3.08579 19.4142C2.71071 19.0391 2.5 18.5304 2.5 18V11H0.5V9H18.5V11H16.5V18ZM5.5 0.5C4.61152 0.5 3.75944 0.852946 3.13119 1.48119C2.50295 2.10944 2.15 2.96152 2.15 3.85C2.15 4.73848 2.50295 5.59056 3.13119 6.21881C3.75944 6.84705 4.61152 7.2 5.5 7.2H7.03C7.42 7.2 7.79 7.3 8.11 7.5H10.13C9.55 6.45 8.36 5.75 7.03 5.75H5.5C4.5 5.75 3.65 4.77 3.65 3.75C3.65 2.73 4.5 2 5.5 2V0.5ZM10.35 1C10.35 2 9.5 2.85 8.5 2.85V4.35C10.42 4.35 12 5.7 12.39 7.5H13.92C13.779 6.61642 13.426 5.78014 12.8914 5.06265C12.3568 4.34517 11.6563 3.76783 10.85 3.38C11.47 2.77 11.85 1.93 11.85 1H10.35Z" fill="white"/>
</svg>
