<svg width="7" height="12" viewBox="0 0 7 12" fill="none" xmlns="http://www.w3.org/2000/svg">
<path d="M6.70798 9.46202L2.82798 5.58202L6.70798 1.70202C6.80056 1.60944 6.874 1.49953 6.92411 1.37856C6.97421 1.2576 7 1.12795 7 0.997021C7 0.86609 6.97421 0.736442 6.92411 0.615478C6.874 0.494513 6.80056 0.384603 6.70798 0.292021C6.6154 0.199439 6.50549 0.125999 6.38452 0.0758939C6.26356 0.0257889 6.13391 -9.75508e-10 6.00298 0C5.87205 9.7551e-10 5.7424 0.0257889 5.62144 0.0758939C5.50047 0.125999 5.39056 0.199439 5.29798 0.292021L0.707979 4.88202C0.317979 5.27202 0.317979 5.90202 0.707979 6.29202L5.29798 10.882C5.39049 10.9747 5.50038 11.0483 5.62136 11.0985C5.74233 11.1486 5.87201 11.1745 6.00298 11.1745C6.13395 11.1745 6.26363 11.1486 6.3846 11.0985C6.50558 11.0483 6.61547 10.9747 6.70798 10.882C7.08798 10.492 7.09798 9.85202 6.70798 9.46202Z" fill="#191919"/>
</svg>
