<svg width="18" height="18" viewBox="0 0 18 18" fill="none" xmlns="http://www.w3.org/2000/svg">
<path d="M0.5 9C0.5 10.654 1.846 12 3.5 12C4.294 12 5.012 11.685 5.549 11.18L11.54 14.604C11.522 14.734 11.5 14.864 11.5 15C11.5 16.654 12.846 18 14.5 18C16.154 18 17.5 16.654 17.5 15C17.5 13.346 16.154 12 14.5 12C13.706 12 12.988 12.315 12.451 12.82L6.46 9.397C6.478 9.266 6.5 9.136 6.5 9C6.5 8.864 6.478 8.734 6.46 8.603L12.451 5.18C12.988 5.685 13.706 6 14.5 6C16.154 6 17.5 4.654 17.5 3C17.5 1.346 16.154 0 14.5 0C12.846 0 11.5 1.346 11.5 3C11.5 3.136 11.522 3.266 11.54 3.397L5.549 6.82C4.996 6.29468 4.26273 6.00123 3.5 6C1.846 6 0.5 7.346 0.5 9Z" fill="#83BF66"/>
</svg>
