<svg width="32" height="24" viewBox="0 0 32 24" fill="none" xmlns="http://www.w3.org/2000/svg">
<path d="M14.9208 5.952V0C4.78592 0.864 0 5.856 0 15.264C0 21.216 3.65982 24 7.78886 24C11.824 24 14.827 21.312 14.827 17.664C14.827 14.88 13.8886 13.344 12.1994 12.192C10.6979 11.136 9.29032 11.136 9.29032 9.408C9.29032 7.776 11.1672 6.336 14.9208 5.952ZM32 5.952V0C21.8651 0.864 17.0792 5.856 17.0792 15.264C17.0792 21.216 20.739 24 24.868 24C28.9032 24 31.9062 21.312 31.9062 17.664C31.9062 14.88 30.9677 13.344 29.2786 12.192C27.7771 11.136 26.3695 11.136 26.3695 9.408C26.3695 7.776 28.2463 6.336 32 5.952Z" fill="#626261"/>
</svg>
