<svg width="48" height="36" viewBox="0 0 48 36" fill="none" xmlns="http://www.w3.org/2000/svg">
<path d="M22.3812 8.928V0C7.17889 1.296 0 8.784 0 22.896C0 31.824 5.48974 36 11.6833 36C17.7361 36 22.2405 31.968 22.2405 26.496C22.2405 22.32 20.8328 20.016 18.2991 18.288C16.0469 16.704 13.9355 16.704 13.9355 14.112C13.9355 11.664 16.7507 9.504 22.3812 8.928ZM48 8.928V0C32.7977 1.296 25.6188 8.784 25.6188 22.896C25.6188 31.824 31.1085 36 37.3021 36C43.3548 36 47.8592 31.968 47.8592 26.496C47.8592 22.32 46.4516 20.016 43.9179 18.288C41.6657 16.704 39.5543 16.704 39.5543 14.112C39.5543 11.664 42.3695 9.504 48 8.928Z" fill="#626261"/>
</svg>
