<svg width="14" height="20" viewBox="0 0 14 20" fill="none" xmlns="http://www.w3.org/2000/svg">
<path fill-rule="evenodd" clip-rule="evenodd" d="M1 18H13C13.55 18 14 18.45 14 19C14 19.55 13.55 20 13 20H1C0.45 20 0 19.55 0 19C0 18.45 0.45 18 1 18ZM7 5C5.9 5 5 5.9 5 7C5 8.1 5.9 9 7 9C7.53043 9 8.03914 8.78929 8.41421 8.41421C8.78929 8.03914 9 7.53043 9 7C9 6.46957 8.78929 5.96086 8.41421 5.58579C8.03914 5.21071 7.53043 5 7 5ZM7 0C10.27 0 14 2.46 14 7.15C14 10.13 11.87 13.27 7.61 16.54C7.25 16.82 6.75 16.82 6.39 16.54C2.13 13.26 0 10.13 0 7.15C0 2.46 3.73 0 7 0Z" fill="#83BF66"/>
</svg>
