<svg width="33" height="32" viewBox="0 0 33 32" fill="none" xmlns="http://www.w3.org/2000/svg">
<circle cx="16" cy="16" r="16" fill="white"/>
<path fill-rule="evenodd" clip-rule="evenodd" d="M8.33908 16.3607C9.40819 15.7891 11.9741 13.9316 11.8315 9.00194V4.0723H12.6155V9.00194H19.244V4.14375H20.028V9.00194C20.028 9.00194 19.7429 13.7172 23.3066 16.5035C23.3139 16.5035 23.3529 16.5206 23.4195 16.5496C24.0072 16.8061 26.7461 18.0014 28.7948 16.7179C30.0064 15.932 31.0755 15.5748 32.0734 15.5033C31.717 6.85862 24.7321 0 16.0367 0C7.19869 0 0 7.21584 0 16.0749V17.1465C0.356371 17.0751 0.784017 16.9322 1.06911 16.7179C4.34772 14.7175 6.6285 15.3604 8.33908 16.3607ZM0.141806 17.9324C0.569451 17.8609 1.06837 17.6466 1.56729 17.3608C4.34698 15.6462 6.27138 16.0748 7.91069 17.0036L6.98412 29.292C3.27787 26.7914 0.711999 22.6477 0.141806 17.9324ZM23.9479 17.5752C24.5894 17.861 25.5872 18.0753 26.585 18.0753C27.4403 18.0753 28.3669 17.9324 29.2222 17.3609C30.2913 16.6464 31.2179 16.3606 32.0732 16.2178C32.0019 21.6475 29.2935 26.4342 25.1596 29.292C24.9814 27.6488 24.7676 25.5413 24.5537 23.4337L24.5537 23.4336L24.5537 23.4335C24.3399 21.3259 24.1261 19.2184 23.9479 17.5752ZM16.179 13.4314C16.3928 12.9313 16.8917 12.5027 17.8896 12.4312C19.7427 12.3598 20.3129 15.3604 16.3928 17.7895C12.1876 15.6462 12.4727 12.6455 14.3971 12.5741C15.3237 12.5741 15.8939 13.0028 16.179 13.4314Z" fill="#D01F43"/>
</svg>
