<svg width="153" height="52" viewBox="0 0 153 52" fill="none" xmlns="http://www.w3.org/2000/svg">
<path fill-rule="evenodd" clip-rule="evenodd" d="M11.2779 21.9846C12.7145 21.2166 16.1624 18.7205 15.9709 12.0964V5.47216H17.0244V12.0964H25.9314V5.56816H26.9849V12.0964C26.9849 12.0964 26.6018 18.4325 31.3906 22.1766C31.4003 22.1766 31.4527 22.1995 31.5421 22.2385L31.5422 22.2385C32.332 22.5832 36.0123 24.1893 38.7652 22.4647C40.3934 21.4086 41.83 20.9286 43.1709 20.8326C42.692 9.21627 33.3061 0 21.6216 0C9.74551 0 0.0722656 9.69628 0.0722656 21.6006V23.0407C0.551139 22.9447 1.12579 22.7527 1.50889 22.4647C5.91452 19.7766 8.97931 20.6406 11.2779 21.9846ZM0.262827 24.0966C0.837475 24.0006 1.50789 23.7126 2.17832 23.3286C5.91353 21.0245 8.49944 21.6006 10.7023 22.8486L9.45719 39.3611C4.47691 36.001 1.02902 30.4328 0.262827 24.0966ZM32.2523 23.6167C33.1142 24.0007 34.4551 24.2887 35.7959 24.2887C36.9452 24.2887 38.1903 24.0967 39.3396 23.3286C40.7762 22.3686 42.0213 21.9846 43.1706 21.7926C43.0748 29.0888 39.4354 35.521 33.8804 39.3611C33.641 37.1531 33.3537 34.321 33.0664 31.489L33.0663 31.4889C32.779 28.6568 32.4917 25.8247 32.2523 23.6167ZM21.8128 18.0485C22.1001 17.3765 22.7705 16.8004 24.1114 16.7044C26.6015 16.6084 27.3677 20.6406 22.1001 23.9046C16.4494 21.0246 16.8325 16.9924 19.4184 16.8964C20.6635 16.8964 21.4297 17.4725 21.8128 18.0485Z" fill="#D01F43"/>
<path d="M49.9219 13.096C49.9219 12.9132 50.0129 12.8217 50.104 12.7303C50.195 12.6389 50.2861 12.6389 50.4682 12.6389H62.5789C62.6699 12.6389 62.852 12.6389 62.9431 12.7303C63.0342 12.8217 63.1252 12.9132 63.1252 13.096V15.9298C63.1252 16.0212 63.0342 16.2041 62.9431 16.2955C62.852 16.3869 62.761 16.4783 62.5789 16.4783H58.6634V28.8192C58.6634 28.9106 58.5723 29.0935 58.4813 29.1849C58.3902 29.2763 58.2992 29.3677 58.1171 29.3677H54.839C54.7479 29.3677 54.5658 29.2763 54.4748 29.1849C54.3837 29.0935 54.2926 29.002 54.2926 28.8192V16.4783H50.4682C50.2861 16.4783 50.195 16.3869 50.104 16.2955C50.0129 16.2041 49.9219 16.1127 49.9219 15.9298V13.096Z" fill="#626261"/>
<path fill-rule="evenodd" clip-rule="evenodd" d="M76.9656 28.545C76.9656 28.6364 76.9656 28.8192 76.8745 28.9106C76.8745 29.002 76.7835 29.0934 76.6925 29.1849C76.6469 29.2306 76.6014 29.2534 76.5558 29.2763C76.5103 29.2992 76.4648 29.322 76.4193 29.3677H73.9607C73.7786 29.3677 73.6875 29.3677 73.5965 29.2763C73.5054 29.2763 73.4144 29.1849 73.3233 29.0935C73.2778 29.0478 73.255 29.0021 73.2322 28.9563C73.2095 28.9106 73.1867 28.8649 73.1412 28.8192C73.1412 28.7814 73.1256 28.7435 73.1073 28.6991C73.0814 28.6364 73.0501 28.5607 73.0501 28.4536L72.868 27.9051C72.7862 27.9873 72.6859 28.0694 72.5755 28.1599C72.4403 28.2707 72.2899 28.394 72.1396 28.545L71.32 29.0935C71.0469 29.2763 70.6826 29.3677 70.3184 29.4591C69.9542 29.5505 69.5899 29.6419 69.2257 29.6419C68.5883 29.6419 67.8598 29.5505 67.2224 29.3677C66.5851 29.1849 66.0387 28.9106 65.4924 28.6364C64.946 28.3622 64.4907 27.9051 64.0354 27.448C63.5801 26.9909 63.2159 26.5339 62.8517 25.9854C62.5785 25.4369 62.3053 24.8884 62.1232 24.2485C61.9411 23.6086 61.8501 22.9687 61.8501 22.2374C61.8501 21.2319 62.0322 20.2263 62.3964 19.3122C62.7606 18.398 63.307 17.6667 63.9444 16.9354C64.5818 16.2955 65.4013 15.747 66.3119 15.3814C67.2224 15.0157 68.133 14.8329 69.1347 14.8329C69.5899 14.8329 70.0452 14.9243 70.4095 15.0157C70.7737 15.1071 71.1379 15.2899 71.5022 15.4728C71.8664 15.6556 72.1396 15.8384 72.4127 16.1127C72.6859 16.3869 72.9591 16.6612 73.1412 16.9354L73.5054 15.9298C73.5453 15.8497 73.5678 15.7695 73.588 15.6971C73.614 15.6043 73.6364 15.5241 73.6875 15.4728C73.7331 15.4271 73.7558 15.3814 73.7786 15.3356C73.8014 15.2899 73.8241 15.2442 73.8696 15.1985C73.9607 15.1071 73.9607 15.1071 74.0518 15.1071H76.3282C76.4193 15.1071 76.5103 15.1985 76.6014 15.2899C76.6924 15.3814 76.7835 15.4728 76.7835 15.5642C76.7835 15.602 76.7991 15.6399 76.8174 15.6843C76.8433 15.747 76.8745 15.8227 76.8745 15.9298V28.545H76.9656ZM65.9476 22.2374C65.9476 22.6945 66.0387 23.243 66.2208 23.6086C66.4029 24.0657 66.585 24.4313 66.8582 24.7056C67.1314 24.9798 67.4956 25.2541 67.8598 25.4369C68.2241 25.6197 68.6794 25.7111 69.2257 25.7111C69.7721 25.7111 70.2273 25.6197 70.5916 25.4369C71.0469 25.2541 71.4111 24.9798 71.6843 24.7056C71.9574 24.4313 72.2306 23.9743 72.4127 23.6086C72.5948 23.1515 72.6859 22.6945 72.6859 22.2374C72.6859 21.7803 72.5948 21.3233 72.4127 20.8662C72.2306 20.4091 71.9574 20.0435 71.6843 19.6778C71.5022 19.4341 71.2391 19.2715 70.976 19.109C70.8445 19.0278 70.713 18.9465 70.5916 18.8551C70.1363 18.6723 69.681 18.5808 69.2257 18.5808C68.7704 18.5808 68.3151 18.6723 67.8598 18.8551C67.4956 19.0379 67.1314 19.3122 66.8582 19.6778C66.585 20.0435 66.3119 20.4091 66.2208 20.8662C65.9476 21.2319 65.9476 21.6889 65.9476 22.2374Z" fill="#626261"/>
<path fill-rule="evenodd" clip-rule="evenodd" d="M80.1067 15.1071C80.0612 15.1299 80.0157 15.1528 79.9701 15.1985C79.8791 15.2899 79.788 15.3813 79.788 15.4727C79.697 15.5642 79.697 15.6556 79.697 15.8384V33.1157C79.697 33.2985 79.697 33.3899 79.788 33.4813C79.788 33.5727 79.8791 33.6641 79.9701 33.7556C80.0612 33.847 80.1523 33.9384 80.2433 33.9384C80.3344 34.0298 80.4254 34.0298 80.5165 34.0298H83.0661C83.3393 34.0298 83.6124 33.9384 83.7035 33.7556C83.7946 33.6641 83.8856 33.3899 83.8856 33.2071V27.9051L84.523 28.545C84.7051 28.8192 84.9783 29.002 85.2515 29.1849C85.5247 29.3677 85.7978 29.5505 86.1621 29.6419C86.5263 29.7333 86.9816 29.8248 87.4369 29.8248C88.4385 29.8248 89.3491 29.6419 90.2596 29.2763C91.1702 28.9106 91.8987 28.3621 92.5361 27.7222C93.1735 26.9909 93.6288 26.2596 93.993 25.3455C94.3572 24.4313 94.5393 23.4258 94.5393 22.4202C94.5393 21.3232 94.3572 20.4091 93.993 19.495C93.6288 18.5808 93.1735 17.7581 92.5361 17.1182C91.8987 16.4783 91.1702 15.9298 90.2596 15.5642C89.4401 15.1985 88.4385 15.0157 87.4369 15.0157C86.8905 15.0157 86.3442 15.0157 85.9799 15.1985C85.6157 15.2899 85.2515 15.4727 84.9783 15.747C84.7051 15.9298 84.432 16.2041 84.2499 16.4783C84.1588 16.6154 84.045 16.7525 83.9311 16.8897C83.8173 17.0268 83.7035 17.1639 83.6124 17.301L83.1572 15.9298C83.1572 15.8227 83.1259 15.747 83.1 15.6842C83.0817 15.6399 83.0661 15.602 83.0661 15.5642C83.0206 15.5184 82.9978 15.4727 82.975 15.427C82.9523 15.3813 82.9295 15.3356 82.884 15.2899C82.7929 15.1985 82.7019 15.1071 82.6108 15.1071C82.5198 15.0157 82.4287 15.0157 82.2466 15.0157H80.2433C80.1978 15.0614 80.1523 15.0842 80.1067 15.1071ZM90.1686 20.8662C90.3507 21.3232 90.4418 21.7803 90.4418 22.2374C90.4418 22.5309 90.2916 22.8997 90.16 23.223C90.0866 23.4032 90.0191 23.5691 89.9865 23.7C89.8954 24.0657 89.6222 24.5227 89.3491 24.797C89.0759 25.0712 88.7117 25.3455 88.3474 25.5283C87.9832 25.7111 87.5279 25.8025 87.0726 25.8025C86.6173 25.8025 86.1621 25.7111 85.7068 25.5283C85.3425 25.3455 84.9783 25.0712 84.6141 24.797C84.3409 24.5227 84.0677 24.1571 83.8856 23.7C83.7035 23.3344 83.6124 22.7859 83.6124 22.3288V22.146C83.7035 21.6889 83.7946 21.3232 83.9767 20.8662C84.2499 20.4091 84.523 20.0434 84.7962 19.7692C85.0694 19.495 85.4336 19.2207 85.8889 19.0379C86.3442 18.8551 86.7995 18.7636 87.2547 18.7636C87.71 18.7636 88.1653 18.8551 88.5296 19.0379C88.8938 19.2207 89.258 19.4035 89.5312 19.7692C89.8044 20.0434 89.9865 20.4091 90.1686 20.8662Z" fill="#626261"/>
<path fill-rule="evenodd" clip-rule="evenodd" d="M97.1804 15.1985C97.2259 15.1528 97.2714 15.1299 97.317 15.1071C97.3625 15.0842 97.408 15.0614 97.4536 15.0157H99.4568C99.6389 15.0157 99.73 15.0157 99.821 15.1071C99.9121 15.1071 100.003 15.1985 100.094 15.2899C100.14 15.3356 100.163 15.3813 100.185 15.427C100.208 15.4727 100.231 15.5184 100.276 15.5642C100.276 15.602 100.292 15.6399 100.31 15.6842C100.336 15.747 100.367 15.8227 100.367 15.9298L100.823 17.301C100.914 17.1639 101.028 17.0268 101.141 16.8898C101.255 16.7527 101.369 16.6154 101.46 16.4783C101.642 16.2041 101.915 15.9298 102.189 15.747C102.462 15.4727 102.826 15.2899 103.19 15.1985C103.554 15.0157 104.101 15.0157 104.647 15.0157C105.649 15.0157 106.65 15.1985 107.47 15.5642C108.38 15.9298 109.109 16.4783 109.746 17.1182C110.384 17.7581 110.839 18.5808 111.203 19.495C111.567 20.4091 111.75 21.3232 111.75 22.4202C111.75 23.4258 111.567 24.4313 111.203 25.3455C110.839 26.2596 110.384 26.9909 109.746 27.7222C109.109 28.3621 108.38 28.9106 107.47 29.2763C106.559 29.6419 105.649 29.8248 104.647 29.8248C104.192 29.8248 103.737 29.7333 103.372 29.6419C103.008 29.5505 102.735 29.3677 102.462 29.1849C102.189 29.002 101.915 28.8192 101.733 28.545L101.096 27.9051V33.2071C101.096 33.3899 101.005 33.6641 100.914 33.7556C100.823 33.847 100.55 34.0298 100.276 34.0298H97.7267C97.6357 34.0298 97.5446 34.0298 97.4536 33.9384C97.3625 33.9384 97.2715 33.847 97.1804 33.7556C97.0894 33.6642 96.9983 33.5727 96.9983 33.4813C96.9072 33.3899 96.9072 33.2985 96.9072 33.1157V15.8384C96.9072 15.6556 96.9072 15.5642 96.9983 15.4727C96.9983 15.3813 97.0893 15.2899 97.1804 15.1985ZM107.652 22.2374C107.652 21.7803 107.561 21.3232 107.379 20.8662C107.197 20.4091 107.015 20.0434 106.741 19.7692C106.468 19.4035 106.104 19.2207 105.74 19.0379C105.376 18.8551 104.92 18.7636 104.465 18.7636C104.01 18.7636 103.554 18.8551 103.099 19.0379C102.644 19.2207 102.28 19.495 102.006 19.7692C101.733 20.0434 101.46 20.4091 101.187 20.8662C101.005 21.3232 100.914 21.6889 100.823 22.146V22.3288C100.823 22.7859 100.914 23.3344 101.096 23.7C101.278 24.0657 101.551 24.5227 101.824 24.797C102.189 25.0712 102.553 25.3455 102.917 25.5283C103.372 25.7111 103.828 25.8025 104.283 25.8025C104.738 25.8025 105.193 25.7111 105.558 25.5283C105.922 25.3455 106.286 25.0712 106.559 24.797C106.832 24.5227 107.106 24.0657 107.197 23.7C107.229 23.5691 107.297 23.4032 107.37 23.223C107.502 22.8997 107.652 22.5309 107.652 22.2374Z" fill="#626261"/>
<path fill-rule="evenodd" clip-rule="evenodd" d="M123.77 29.0935C124.589 28.7278 125.318 28.2707 125.955 27.6308C126.137 27.5394 126.228 27.448 126.137 27.3566C126.228 27.2652 126.228 27.1738 126.228 26.9909V26.7167C126.183 26.671 126.16 26.6253 126.137 26.5796C126.115 26.5339 126.092 26.4882 126.046 26.4424L124.863 25.0712C124.68 24.9798 124.589 24.8884 124.498 24.797C124.407 24.7056 124.316 24.7056 124.225 24.7056C124.134 24.7056 124.043 24.7056 123.952 24.797C123.861 24.797 123.77 24.8884 123.679 24.9798C123.588 25.0255 123.497 25.0941 123.406 25.1626C123.315 25.2312 123.224 25.2998 123.132 25.3455C122.95 25.5283 122.677 25.6197 122.404 25.7111C122.267 25.7568 122.131 25.7797 121.994 25.8025C121.858 25.8254 121.721 25.8483 121.584 25.894C121.311 25.9854 121.038 25.9854 120.765 25.9854C120.492 25.9854 120.219 25.9854 119.854 25.894C119.581 25.8025 119.217 25.6197 118.944 25.4369C118.58 25.2541 118.397 25.0712 118.124 24.7056C117.851 24.4313 117.76 23.9743 117.669 23.5172H126.957C127.23 23.5172 127.412 23.4258 127.503 23.243C127.594 23.1515 127.685 22.9687 127.685 22.6945V21.7803C127.685 21.2318 127.594 20.5919 127.412 20.0435C127.23 19.4036 126.957 18.8551 126.684 18.398C126.411 17.9409 126.046 17.4839 125.591 17.0268C125.227 16.5697 124.772 16.2041 124.225 15.9298C123.679 15.5642 123.132 15.3813 122.586 15.1985C121.949 15.0157 121.402 14.9243 120.765 14.9243C120.128 14.9243 119.49 15.0157 118.853 15.1985C118.215 15.3813 117.669 15.5642 117.123 15.9298C116.576 16.2955 116.121 16.6611 115.666 17.1182C115.21 17.5753 114.846 18.0323 114.573 18.5808C114.209 19.1293 114.027 19.6778 113.845 20.3177C113.662 20.9576 113.571 21.5975 113.571 22.2374C113.571 23.243 113.845 24.2485 114.209 25.1626C114.573 26.0768 115.119 26.8995 115.848 27.5394C116.485 28.1793 117.305 28.7278 118.215 29.0935C119.126 29.4591 120.128 29.6419 121.129 29.6419C122.04 29.6419 122.95 29.4591 123.77 29.0935ZM119.763 18.398C120.037 18.3066 120.31 18.2152 120.583 18.2152C120.765 18.2152 120.947 18.238 121.129 18.2609C121.311 18.2837 121.493 18.3066 121.676 18.3066C121.949 18.398 122.222 18.5808 122.495 18.7636C122.768 18.9464 122.95 19.1293 123.132 19.4036L123.679 20.2263H117.942C118.006 20.0339 118.115 19.8865 118.237 19.7209C118.289 19.6505 118.343 19.5768 118.397 19.495L119.035 18.8551C119.217 18.6722 119.49 18.4894 119.763 18.398Z" fill="#626261"/>
<path d="M129.961 15.8384C129.961 15.6556 129.961 15.5642 130.052 15.4728C130.098 15.4271 130.12 15.3814 130.143 15.3357C130.166 15.29 130.189 15.2443 130.234 15.1985C130.28 15.1528 130.325 15.13 130.371 15.1071C130.416 15.0843 130.462 15.0614 130.507 15.0157C130.545 15.0157 130.583 15 130.627 14.9817C130.69 14.9557 130.765 14.9243 130.872 14.9243H132.602C132.784 14.9243 132.966 15.0157 133.057 15.1071C133.148 15.1985 133.239 15.3813 133.33 15.5641C133.421 15.7469 133.512 15.9299 133.512 16.1127C133.558 16.2041 133.581 16.3184 133.603 16.4326C133.626 16.5469 133.649 16.6612 133.694 16.7526C133.785 16.6155 133.899 16.5012 134.013 16.387C134.127 16.2727 134.241 16.1584 134.332 16.0213C134.514 15.747 134.787 15.5642 135.06 15.3814C135.333 15.1985 135.607 15.0157 135.88 14.9243C136.153 14.8329 136.517 14.7415 136.881 14.7415C137.246 14.7415 137.61 14.7415 137.974 14.8329C138.111 14.8786 138.27 14.9243 138.429 14.97C138.589 15.0157 138.748 15.0614 138.885 15.1071C139.158 15.1985 139.431 15.3814 139.704 15.5642C139.977 15.747 140.251 15.9299 140.615 16.2041C140.979 16.3869 141.07 16.5698 141.07 16.844C141.07 17.0268 140.979 17.2097 140.888 17.3925L139.886 19.1294C139.704 19.4036 139.431 19.5864 139.158 19.5864C138.976 19.5864 138.885 19.5864 138.612 19.495C138.499 19.4101 138.395 19.3253 138.294 19.2431C138.07 19.0598 137.861 18.8899 137.61 18.7637C137.246 18.5809 136.881 18.4895 136.426 18.4895C136.153 18.4895 135.88 18.4895 135.698 18.5809C135.655 18.6024 135.607 18.624 135.556 18.6468C135.392 18.7205 135.199 18.8069 135.06 18.9465L134.514 19.495C134.404 19.6057 134.327 19.7499 134.243 19.9074C134.188 20.0099 134.13 20.1182 134.059 20.2263V28.3622C134.059 28.6364 133.968 28.8192 133.877 29.0021C133.694 29.1849 133.512 29.1849 133.148 29.1849H130.598C130.052 29.1849 129.688 28.9107 129.688 28.2708V15.8384H129.961Z" fill="#626261"/>
<path d="M144.759 25.1626C144.645 25.0712 144.531 24.9798 144.44 24.8884C144.258 24.7056 144.076 24.5228 143.985 24.7056C143.894 24.7056 143.711 24.7056 143.529 24.8884L142.072 26.351C141.981 26.4425 141.89 26.5339 141.89 26.6253C141.799 26.7167 141.799 26.8081 141.799 26.8995C141.799 26.9452 141.822 27.0138 141.845 27.0824C141.868 27.1509 141.89 27.2195 141.89 27.2652C141.89 27.448 141.981 27.5394 142.072 27.6308C142.437 28.0879 142.801 28.4536 143.165 28.7278C143.529 29.0021 143.985 29.2763 144.44 29.4591C144.895 29.642 145.351 29.7334 145.806 29.8248C146.352 29.9162 146.807 29.9162 147.263 29.9162C148.082 29.9162 148.811 29.8248 149.539 29.6419C150.268 29.4591 150.814 29.0935 151.36 28.7278C151.816 28.3622 152.271 27.8137 152.544 27.2652C152.817 26.6253 152.999 25.9854 152.999 25.2541C152.999 24.5228 152.908 23.8829 152.635 23.3344C152.362 22.7859 152.089 22.3288 151.633 21.9632C151.269 21.5975 150.723 21.3233 150.177 21.049C149.63 20.7748 148.993 20.5005 148.355 20.3177C148.264 20.2263 147.991 20.1349 147.809 20.1349C147.689 20.0948 147.587 20.0723 147.495 20.052C147.376 20.0259 147.274 20.0034 147.172 19.9521C146.99 19.8606 146.807 19.7692 146.716 19.6778C146.625 19.5864 146.534 19.4036 146.534 19.2207C146.534 19.0379 146.625 18.7637 146.807 18.6723C147.081 18.5808 147.354 18.4894 147.718 18.4894C147.934 18.4894 148.15 18.5467 148.412 18.6159C148.481 18.6341 148.553 18.6532 148.629 18.6723C148.993 18.7637 149.266 18.9465 149.539 19.2207C149.539 19.2772 149.574 19.2988 149.622 19.3286C149.652 19.3471 149.687 19.3687 149.721 19.4036C149.767 19.4036 149.812 19.4264 149.858 19.4493C149.903 19.4721 149.949 19.495 149.994 19.495H150.268C150.313 19.4493 150.359 19.4264 150.404 19.4036C150.45 19.3807 150.495 19.3579 150.541 19.3122C150.723 19.0684 150.905 18.9059 151.087 18.7433C151.178 18.6621 151.269 18.5808 151.36 18.4894C151.497 18.3523 151.633 18.238 151.77 18.1238C151.907 18.0095 152.043 17.8952 152.18 17.7581C152.362 17.5753 152.453 17.3925 152.453 17.301C152.453 17.1672 152.404 17.0824 152.342 16.9748C152.32 16.9354 152.295 16.893 152.271 16.844C151.907 16.4783 151.542 16.2041 151.178 15.9298C150.814 15.6556 150.45 15.4728 150.086 15.2899C149.721 15.1071 149.357 15.0157 148.902 14.9243C148.446 14.8329 147.991 14.8329 147.536 14.8329C146.807 14.8329 146.079 14.9243 145.442 15.1071C144.804 15.2899 144.258 15.5642 143.803 15.9298C143.347 16.2955 142.983 16.6611 142.71 17.2096C142.437 17.7581 142.346 18.3066 142.346 18.9465C142.346 19.495 142.437 20.0435 142.528 20.5005C142.71 21.049 142.983 21.5061 143.256 21.8718C143.529 22.2374 144.076 22.6031 144.622 22.9687C145.168 23.3344 145.897 23.6086 146.807 23.8829C146.944 23.9286 147.058 23.9743 147.172 24.02C147.285 24.0657 147.399 24.1114 147.536 24.1571C147.597 24.1876 147.657 24.2282 147.718 24.2688C147.839 24.3501 147.961 24.4313 148.082 24.4313C148.221 24.4313 148.307 24.538 148.381 24.6292C148.403 24.6573 148.425 24.684 148.446 24.7056C148.538 24.797 148.538 24.9798 148.538 25.1627C148.538 25.4369 148.538 25.6197 148.355 25.7111L147.809 25.9854C147.627 26.0768 147.354 26.0768 147.172 26.0768H146.625C146.588 26.0768 146.55 26.0611 146.506 26.0427C146.443 26.0168 146.368 25.9854 146.261 25.9854C146.079 25.9854 145.897 25.894 145.715 25.8026C145.533 25.7111 145.351 25.6197 145.077 25.4369C144.986 25.3455 144.872 25.2541 144.759 25.1626Z" fill="#626261"/>
<path d="M59.7821 47.1063C59.6623 47.1063 59.5425 47.1872 59.5026 47.3489C59.4515 47.4491 59.3959 47.5605 59.3361 47.6804C58.6959 48.9649 57.5662 51.2316 56.069 51.2316C55.2306 51.2316 54.9112 50.7058 54.9112 49.7351C54.9112 46.1356 59.303 37.6827 60.3011 37.6827C60.3411 37.6827 60.381 37.804 60.381 37.9658C60.381 38.9365 59.4627 41.4845 59.0235 42.0103V41.9698C58.9836 42.0507 58.9437 42.172 58.9437 42.2529C58.9437 42.4956 59.1832 42.6574 59.3429 42.6574C59.822 42.6574 61.0996 39.26 61.0996 37.8445C61.0996 37.2378 60.9 36.8334 60.5008 36.8334C58.9836 36.8334 54.2324 45.6503 54.2324 49.7351C54.2324 51.2316 54.9511 52 56.1089 52C57.9854 52 59.4627 49.1285 60.1414 47.632C60.1813 47.5916 60.1813 47.5511 60.1813 47.5107C60.1813 47.268 59.9418 47.1063 59.7821 47.1063Z" fill="#D01F43"/>
<path fill-rule="evenodd" clip-rule="evenodd" d="M71.0012 46.3783C70.9612 46.3783 70.9213 46.3783 70.8414 46.4187L70.7217 46.5401L70.669 46.5706C70.3937 46.7307 70.0258 46.9445 69.7635 46.9445C69.5638 46.9445 69.484 46.8231 69.484 46.5805C69.484 46.2569 69.6038 45.8121 69.7635 45.3267V45.3671C69.9232 44.8818 70.043 44.3965 70.043 44.0325C70.043 43.7089 69.9232 43.4663 69.5638 43.4663C68.8052 43.4663 67.7672 44.8009 66.9287 46.0547C66.9601 45.9529 66.9906 45.85 67.0205 45.7465C67.059 45.6133 67.0966 45.479 67.1343 45.3442C67.2536 44.918 67.3743 44.4872 67.5276 44.0729C67.5276 43.7494 67.3679 43.5876 67.1683 43.5876C67.036 43.5876 66.8763 43.7264 66.6892 43.889C66.6504 43.9227 66.6105 43.9574 66.5694 43.992C66.1302 44.3965 65.4515 45.0032 64.5731 45.0032C64.2138 45.0032 64.0541 44.8818 63.8944 44.72H63.9343C63.8145 44.5987 63.6149 44.4774 63.2556 44.3965C63.1358 44.3965 62.9362 44.5178 62.8563 44.6796L62.8565 44.6747L62.8566 44.673L62.8568 44.6717C62.857 44.6699 62.8573 44.6681 62.8576 44.6663C62.8583 44.6629 62.8592 44.6594 62.8602 44.6559C62.863 44.6466 62.8669 44.637 62.8712 44.6265C62.8826 44.5987 62.8962 44.5652 62.8962 44.5178C62.8962 44.3561 62.7366 44.1134 62.5369 44.1134C62.5167 44.1134 62.4761 44.1134 62.4356 44.1186C62.3962 44.1237 62.357 44.1338 62.3373 44.1538L62.3772 44.1134C61.1395 44.6391 60.4209 46.0143 60.4209 47.0658C60.4209 47.8747 60.86 48.5218 61.7783 48.5218C63.4153 48.5218 64.2937 46.9849 64.2937 45.8525V45.8121C64.3735 45.8525 64.4534 45.8525 64.5731 45.8525C65.1321 45.8525 65.7709 45.6907 66.4496 45.1649C66.4253 45.2389 66.4042 45.3012 66.3855 45.3566L66.3815 45.3684L66.3801 45.3724C66.3101 45.5791 66.2722 45.6909 66.2101 45.9738C66.1663 46.1336 66.1225 46.2914 66.0791 46.4477C65.9248 47.0036 65.7758 47.5403 65.6511 48.0769V48.0365L65.6112 48.1174C65.6112 48.36 65.7709 48.5218 65.9705 48.5218C66.0903 48.5218 66.2101 48.4409 66.2899 48.36L66.5295 47.9961C67.1683 47.0254 68.8452 44.5987 69.2444 44.3561L69.1247 44.7605V44.72C68.965 45.1649 68.7653 45.8929 68.7653 46.4996C68.7653 47.1063 69.0049 47.7534 69.8034 47.7534C70.2426 47.7534 71.3605 46.9849 71.3605 46.7423C71.3605 46.5805 71.1609 46.3783 71.0012 46.3783ZM61.2593 46.9445C61.2593 46.2165 61.7783 45.2054 62.7765 44.6391C62.7366 44.6796 62.6966 44.8009 62.7366 44.9223C62.7366 45.1649 62.9362 45.4076 63.4552 45.4885C63.4951 45.5694 63.5351 45.7312 63.575 45.8121V45.8525C63.575 46.7018 62.6168 47.7534 61.8183 47.7534C61.4589 47.7534 61.2593 47.3894 61.2593 46.9445Z" fill="#D01F43"/>
<path fill-rule="evenodd" clip-rule="evenodd" d="M90.7255 46.9548C90.7248 46.9785 90.7244 47.002 90.7244 47.0254C90.7244 47.8342 91.1636 48.4814 92.0819 48.4814C93.7189 48.4814 94.5972 46.9849 94.5972 45.8525V45.7716C94.6466 45.7966 94.6654 45.7907 94.6914 45.7825C94.7075 45.7775 94.7264 45.7716 94.7569 45.7716C95.276 45.7716 95.8349 45.4885 96.4737 44.9222C96.1543 46.1356 95.8748 47.632 95.8748 48.6836C95.8748 48.9667 95.9946 49.1285 96.2341 49.1285C96.593 49.1946 97.3249 47.4249 97.8855 46.0692L97.8857 46.0687C98.0113 45.7652 98.1282 45.4825 98.2304 45.2458L98.2704 45.1245C98.3902 46.0143 98.8692 46.4996 99.6678 46.4996C99.9073 46.4996 100.905 46.4187 100.905 46.0143C100.905 45.7716 100.786 45.6098 100.546 45.6098V45.5694H100.347C100.027 45.6907 99.8275 45.7311 99.6278 45.7311C98.9491 45.7311 98.9092 45.084 98.9092 44.5178C98.9092 43.992 98.9092 43.628 98.5499 43.5876C98.1905 43.5471 97.3521 45.2863 96.8729 46.54C97.0726 45.3671 97.392 44.0729 97.8711 43.1831C97.911 43.1022 97.911 43.0618 97.911 43.0214C97.911 42.8596 97.7912 42.7382 97.5517 42.7382C97.5118 42.7382 97.4319 42.7382 97.3121 42.8191C97.2544 42.8894 97.1937 42.9649 97.13 43.0439L97.1255 43.0496C96.5299 43.7901 95.6846 44.8414 94.677 44.8414C94.4774 44.8414 94.3177 44.72 94.1979 44.5987C94.0382 44.4774 93.8785 44.356 93.5591 44.3156C93.4394 44.3156 93.2797 44.3965 93.1998 44.5178V44.4369C93.1998 44.2751 93.0401 44.0325 92.8006 44.0325L92.7876 44.0325C92.7819 44.0326 92.7761 44.0327 92.7703 44.0331C92.7645 44.0335 92.7586 44.0341 92.7528 44.035C92.7288 44.0389 92.7048 44.0486 92.6808 44.0729C91.9321 44.3909 91.3734 45.0197 91.0487 45.6997C91.0287 45.7043 91.0088 45.7114 90.9888 45.7222C90.9672 45.7338 90.9457 45.7498 90.9241 45.7716V45.7312C90.5249 46.1356 89.4069 47.2681 89.1674 47.2681C89.1275 47.2681 89.1275 47.1872 89.1275 47.0659C89.1275 46.6614 89.2871 45.893 89.4868 45.0841C89.6864 44.3561 89.8461 43.5472 89.8461 43.1427C89.8461 42.7787 89.6465 42.617 89.4069 42.617C88.7282 42.617 87.2509 44.5178 86.5323 45.4481L86.4924 45.4885C86.5051 45.3729 86.5218 45.2572 86.5387 45.1403C86.575 44.8891 86.6121 44.632 86.6121 44.3561C86.6121 43.7898 86.4125 43.5067 86.0532 43.5067C85.4942 43.5067 84.6158 44.7201 84.017 45.6907L83.4979 46.4187C83.6089 45.913 83.6813 45.661 83.7821 45.3103L83.7836 45.3049C83.8275 45.1521 83.8769 44.9802 83.9371 44.7605C84.1367 44.073 84.3364 43.3854 84.4562 42.6979C84.4562 42.4552 84.2965 42.2934 84.017 42.2934C83.8173 42.2934 83.6975 42.4147 83.6576 42.5361C83.3382 43.2641 81.6214 46.5805 80.9028 46.5805C80.743 46.5805 80.6632 46.3379 80.6632 46.0952C80.6632 45.926 80.7214 45.7568 80.7702 45.615C80.7914 45.5534 80.8108 45.497 80.8229 45.4481H80.783C80.7982 45.4172 80.8135 45.3922 80.8265 45.3709C80.8476 45.3363 80.8628 45.3113 80.8628 45.2863C80.8628 45.165 80.783 45.0841 80.7031 45.0032C80.8628 44.9627 80.9427 44.8414 80.9427 44.6796C80.9427 43.9112 79.9845 43.3045 79.3856 43.3045C77.9483 43.3045 76.8303 45.529 76.8303 46.9445C76.8303 47.6321 77.0699 48.1983 77.7486 48.1983C78.5072 48.1983 79.2658 47.5107 79.9445 46.7018C79.9445 47.2276 80.1442 47.5916 80.6233 47.5916C81.342 47.5916 82.2602 46.4996 83.0188 45.3267C82.8192 46.1761 82.6595 47.0254 82.6595 47.4298C82.6595 47.7939 82.8991 47.9152 83.0188 47.9152C83.5379 47.9152 84.2565 46.8636 84.8554 45.893C85.2547 45.2458 85.614 44.6796 85.8935 44.437C85.9334 44.4774 85.8935 44.3965 85.8935 44.4774C85.8935 44.7201 85.8536 45.0841 85.8136 45.4076C85.7737 45.7312 85.7338 46.0143 85.7338 46.257C85.7338 46.5805 85.8136 46.9445 86.133 46.9445C86.3326 46.9041 87.0513 46.0952 87.73 45.2458C87.856 45.097 87.9847 44.9426 88.1125 44.7892L88.1157 44.7853C88.4731 44.3564 88.8235 43.936 89.0875 43.6685C89.0569 43.8547 89.0262 43.9457 88.9415 44.1972L88.9146 44.2771C88.895 44.3354 88.873 44.4015 88.848 44.4774C88.8232 44.5611 88.7975 44.6465 88.7715 44.7332L88.7682 44.7441C88.5433 45.4932 88.289 46.3398 88.289 47.0254C88.289 47.5916 88.4487 48.0365 89.0077 48.077C89.33 48.077 90.1169 47.4987 90.7255 46.9548ZM80.3438 45.0436C80.264 45.0032 80.224 44.9627 80.224 44.8414C80.1042 44.3561 79.8248 44.1539 79.4255 44.1539C78.2677 44.1539 77.7087 45.9334 77.7087 46.9041C77.7087 47.3085 77.7886 47.5107 77.9483 47.5107C78.3296 47.5107 78.9638 46.7421 79.5088 46.0817L79.5871 45.9869C79.6166 45.9513 79.6457 45.9161 79.6745 45.8815C79.7545 45.7852 79.8316 45.6936 79.9046 45.6099L79.905 45.6092C80.0646 45.3668 80.2241 45.1244 80.3438 45.0436ZM91.6028 46.9445C91.6028 46.176 92.1218 45.2054 93.1199 44.6391C93.1199 44.6796 93.08 44.7605 93.0401 44.8818C93.0401 45.084 93.2797 45.2863 93.7587 45.3671C93.8386 45.6098 93.8785 45.7716 93.8785 45.8525C93.8785 46.7018 92.9603 47.7534 92.1618 47.7534C91.7625 47.7534 91.6028 47.4298 91.6028 46.9445Z" fill="#D01F43"/>
<path d="M101.864 48.6836C101.864 49.088 101.744 49.5734 101.065 49.5734C100.786 49.5734 100.706 49.4116 100.706 49.2094C100.706 49.0476 100.866 48.9262 100.985 48.8454V48.8049C100.946 48.724 100.946 48.6431 100.946 48.5218C100.946 48.2791 101.185 48.1578 101.465 48.1578C101.664 48.1578 101.864 48.2791 101.864 48.5218V48.6836Z" fill="#D01F43"/>
<path fill-rule="evenodd" clip-rule="evenodd" d="M116.636 48.1983C115.967 48.1983 115.725 47.6475 115.718 46.9728C115.17 47.4859 114.46 48.0365 114.161 48.0365C113.562 48.0365 113.362 47.5511 113.362 46.9849C113.362 46.2569 113.642 45.2458 113.921 44.4774C113.956 44.3178 114.007 44.1815 114.052 44.0584C114.111 43.9006 114.161 43.7643 114.161 43.628C113.835 43.9583 113.443 44.4551 113.015 44.9976L113.014 44.9992L112.883 45.1649C112.777 45.2894 112.672 45.4139 112.568 45.536L112.559 45.5477L112.555 45.5518C111.926 46.2955 111.377 46.9445 111.206 46.9445C110.847 46.9445 110.767 46.5805 110.767 46.2569C110.767 46.0143 110.807 45.6503 110.847 45.3671C110.865 45.201 110.892 45.0349 110.915 44.888C110.934 44.7722 110.95 44.6684 110.96 44.5859C110.964 44.5437 110.967 44.5071 110.967 44.4774V44.4369C110.693 44.6794 110.361 45.189 110.021 45.7115C109.964 45.799 109.906 45.8868 109.849 45.9738C109.41 46.7018 108.891 47.5107 108.372 47.8343C108.332 47.8747 108.212 47.9152 108.172 47.9152C108.012 47.9152 107.773 47.7938 107.773 47.3489C107.773 46.6563 108.207 44.9019 108.489 43.7578L108.531 43.5876L108.771 42.7383C108.811 42.5765 108.971 42.4551 109.17 42.4551C109.41 42.4551 109.53 42.5765 109.53 42.8596C109.41 43.5872 109.21 44.3148 109.011 45.0425L109.011 45.0436C108.851 45.6098 108.731 46.0547 108.611 46.6209C108.731 46.4753 108.851 46.2861 108.971 46.0968L108.971 46.0962C109.051 45.9702 109.13 45.8442 109.21 45.7312C109.809 44.8009 110.647 43.628 111.167 43.628C111.486 43.628 111.725 43.9516 111.725 44.5178C111.725 44.9284 111.657 45.2356 111.584 45.5667L111.566 45.6503L111.606 45.6098C112.284 44.6796 113.802 42.7383 114.52 42.7383C114.72 42.7383 114.92 42.8596 114.92 43.264C114.92 43.5804 114.797 44.144 114.668 44.7423L114.668 44.7427C114.632 44.9093 114.595 45.0785 114.56 45.2458C114.535 45.3678 114.508 45.4898 114.482 45.6104C114.467 45.6802 114.451 45.7495 114.436 45.818C114.313 46.3767 114.201 46.8841 114.201 47.1872C114.201 47.2192 114.201 47.2457 114.202 47.2672C114.202 47.2769 114.202 47.2856 114.203 47.2933C114.206 47.3235 114.212 47.3397 114.225 47.3459C114.229 47.348 114.235 47.3489 114.241 47.3489C114.48 47.3489 115.078 46.7439 115.556 46.2588L115.558 46.2578L115.558 46.2572L115.558 46.2569C115.638 46.0547 115.758 45.8929 115.838 45.8525C115.861 45.8286 115.885 45.8118 115.908 45.7999C116.286 44.5704 117.189 43.3045 118.273 43.3045C118.872 43.3045 119.83 43.9112 119.83 44.6796C119.83 44.8414 119.75 44.9627 119.591 45.0032C119.671 45.0841 119.75 45.165 119.75 45.2863C119.75 45.3113 119.735 45.3363 119.714 45.3709C119.701 45.3922 119.686 45.4172 119.671 45.4481H119.711C119.698 45.497 119.679 45.5534 119.658 45.615C119.609 45.7568 119.551 45.926 119.551 46.0952C119.551 46.3379 119.631 46.5805 119.79 46.5805C120.509 46.5805 122.226 43.2641 122.545 42.5361C122.585 42.4147 122.705 42.2934 122.905 42.2934C123.184 42.2934 123.344 42.4552 123.344 42.6979C123.224 43.3854 123.024 44.073 122.825 44.7605C122.764 44.9828 122.714 45.1561 122.67 45.3103C122.569 45.661 122.496 45.913 122.386 46.4187L122.905 45.6907C123.503 44.7201 124.382 43.5067 124.941 43.5067C125.3 43.5067 125.5 43.7898 125.5 44.3561C125.5 44.6319 125.463 44.8889 125.426 45.1399C125.409 45.257 125.393 45.3727 125.38 45.4885L125.42 45.4481C126.139 44.5178 127.616 42.617 128.295 42.617C128.534 42.617 128.734 42.7787 128.734 43.1427C128.734 43.5472 128.574 44.3561 128.374 45.0841C128.175 45.893 128.015 46.6614 128.015 47.0659C128.015 47.1872 128.015 47.2681 128.055 47.2681C128.295 47.2681 129.413 46.1356 129.812 45.7312V45.7716C129.842 45.7414 129.871 45.7225 129.901 45.7106C130.334 44.5981 131.212 43.5067 132.247 43.5067C132.926 43.5067 133.844 44.1134 133.844 44.8819C133.844 45.1245 133.684 45.2458 133.485 45.2458L133.405 45.529C133.086 46.257 132.926 46.7827 132.926 47.1063C132.926 47.3489 132.966 47.4703 133.126 47.4703C133.485 47.4703 134.243 46.8636 135.082 45.6503C135.162 45.5694 135.282 45.529 135.401 45.529C135.561 45.529 135.761 45.6907 135.761 45.8929C135.761 45.8929 135.681 45.9738 135.681 46.1356C134.643 47.5916 133.605 48.3196 132.966 48.3196C132.487 48.3196 132.207 47.9556 132.207 47.3085V47.0659C131.648 47.6321 131.009 48.1174 130.45 48.1174C129.892 48.1174 129.612 47.6725 129.612 47.0659C129.612 47.029 129.613 46.9915 129.615 46.9534C129.006 47.4977 128.218 48.077 127.895 48.077C127.336 48.0365 127.177 47.5916 127.177 47.0254C127.177 46.3398 127.431 45.4932 127.656 44.7441L127.659 44.7332C127.685 44.6465 127.711 44.5611 127.736 44.4774C127.773 44.3645 127.803 44.2735 127.829 44.1972C127.914 43.9457 127.945 43.8547 127.975 43.6685C127.711 43.936 127.361 44.3564 127.003 44.7853C126.935 44.867 126.867 44.9489 126.799 45.0303C126.738 45.1029 126.678 45.175 126.618 45.2458C125.939 46.0952 125.22 46.9041 125.021 46.9445C124.701 46.9445 124.621 46.5805 124.621 46.257C124.621 46.0451 124.652 45.8024 124.686 45.5289L124.701 45.4076C124.741 45.0841 124.781 44.7201 124.781 44.4774C124.781 44.3965 124.821 44.4774 124.781 44.437C124.502 44.6796 124.142 45.2458 123.743 45.893C123.144 46.8636 122.425 47.9152 121.906 47.9152C121.787 47.9152 121.547 47.7939 121.547 47.4298C121.547 47.0254 121.707 46.1761 121.906 45.3267C121.148 46.4996 120.23 47.5916 119.511 47.5916C119.032 47.5916 118.832 47.2276 118.832 46.7018C118.153 47.5107 117.395 48.1983 116.636 48.1983ZM119.231 45.0436C119.152 45.0032 119.112 44.9627 119.112 44.8414C118.992 44.3561 118.712 44.1539 118.313 44.1539C117.155 44.1539 116.596 45.9334 116.596 46.9041C116.596 47.3085 116.676 47.5107 116.836 47.5107C117.217 47.5107 117.851 46.7421 118.396 46.0817L118.398 46.0802C118.537 45.9114 118.67 45.7497 118.792 45.6099C118.828 45.5562 118.861 45.5025 118.893 45.4505C119.007 45.2677 119.107 45.1066 119.231 45.0436ZM132.407 44.3156C132.726 44.3156 132.966 44.5583 133.126 44.8819C133.006 44.9223 132.806 45.2054 132.606 45.4885C132.533 45.5795 132.453 45.6796 132.369 45.7849C131.821 46.4758 131.095 47.3894 130.61 47.3894C130.49 47.3894 130.45 47.3085 130.45 47.0659C130.45 46.2165 131.209 44.3156 132.407 44.3156Z" fill="#D01F43"/>
<path d="M132.966 41.6867C132.766 41.6867 132.527 41.9699 132.367 42.2529C132.287 42.3743 132.207 42.4956 132.087 42.617C132.048 42.6979 132.008 42.8192 132.008 42.9001C132.008 43.1023 132.167 43.2641 132.367 43.2641C132.567 43.2641 133.325 42.4147 133.325 42.0507C133.325 41.8485 133.126 41.6867 132.966 41.6867Z" fill="#D01F43"/>
</svg>
