<svg width="144" height="91" viewBox="0 0 144 91" fill="none" xmlns="http://www.w3.org/2000/svg">
<path fill-rule="evenodd" clip-rule="evenodd" d="M58.1334 29.0182C60.0415 28 64.621 24.6909 64.3665 15.9091V7.12726H65.7658V15.9091H77.5962V7.25454H78.9955V15.9091C78.9955 15.9091 78.4866 24.3091 84.8471 29.2727C84.86 29.2727 84.9296 29.303 85.0484 29.3548C86.0975 29.8117 90.9856 31.941 94.6421 29.6545C96.8046 28.2545 98.7127 27.6182 100.494 27.4909C99.8576 12.2182 87.264 0 71.8718 0C56.098 0 43.25 12.8545 43.25 28.6364V30.5454C43.886 30.4182 44.6493 30.1636 45.1581 29.7818C50.8825 25.9636 55.0804 27.2363 58.1334 29.0182ZM43.5035 31.8182C44.2668 31.6909 45.1572 31.3091 46.0477 30.8C51.0088 27.6182 54.4434 28.5091 57.3692 30.1636L55.7155 52.0545C49.1007 47.6 44.5212 40.2182 43.5035 31.8182ZM85.9914 31.1818C87.1363 31.6909 88.9171 32.0727 90.6981 32.0727C92.2246 32.0727 93.8783 31.6909 95.4048 30.8C97.3129 29.5272 98.9666 29.0181 100.493 28.7636C100.366 38.4363 95.532 46.9636 88.1539 52.0545C87.8359 49.1272 87.4543 45.3727 87.0726 41.6182L87.0726 41.6179C86.691 37.8635 86.3094 34.109 85.9914 31.1818ZM71.9991 23.7999C72.3807 22.909 73.2712 22.1454 75.0521 22.0181C78.4867 21.7636 79.5044 27.109 72.3807 31.5636C64.8754 27.7454 65.3843 22.4 68.8189 22.2727C70.4726 22.2727 71.4903 23.0363 71.9991 23.7999Z" fill="white"/>
<path d="M0 61.8546C0 61.6001 0.127205 61.4728 0.254412 61.3455C0.38162 61.2183 0.508832 61.2183 0.763248 61.2183H17.6819C17.8091 61.2183 18.0635 61.2183 18.1908 61.3455C18.318 61.4728 18.4452 61.6001 18.4452 61.8546V65.8001C18.4452 65.9274 18.318 66.1819 18.1908 66.3092C18.0635 66.4364 17.9363 66.5637 17.6819 66.5637H12.212V83.7455C12.212 83.8728 12.0848 84.1273 11.9576 84.2546C11.8304 84.3819 11.7031 84.5092 11.4487 84.5092H6.86923C6.74203 84.5092 6.48761 84.3819 6.3604 84.2546C6.2332 84.1273 6.10599 84.0001 6.10599 83.7455V66.5637H0.763248C0.508832 66.5637 0.381624 66.4364 0.254416 66.3092C0.12721 66.1819 0 66.0546 0 65.8001V61.8546Z" fill="white"/>
<path fill-rule="evenodd" clip-rule="evenodd" d="M37.7803 83.3637C37.7803 83.491 37.7803 83.7455 37.6531 83.8728C37.6531 84.0001 37.5259 84.1273 37.3987 84.2546C37.3351 84.3182 37.2715 84.3501 37.2079 84.3819C37.1443 84.4137 37.0807 84.4455 37.017 84.5092H33.5824C33.328 84.5092 33.2008 84.5092 33.0736 84.3819C32.9464 84.3819 32.8192 84.2546 32.692 84.1274C32.6284 84.0637 32.5966 84.0001 32.5648 83.9365C32.533 83.8728 32.5012 83.8092 32.4376 83.7456C32.4376 83.6928 32.4157 83.6401 32.3902 83.5783C32.354 83.491 32.3103 83.3856 32.3103 83.2365L32.0559 82.4728C31.9416 82.5872 31.8015 82.7017 31.6473 82.8276C31.4584 82.9819 31.2484 83.1535 31.0383 83.3637L29.8934 84.1274C29.5118 84.3819 29.0029 84.5092 28.4941 84.6365C27.9853 84.7637 27.4764 84.891 26.9676 84.891C26.0772 84.891 25.0595 84.7637 24.169 84.5092C23.2786 84.2546 22.5153 83.8728 21.7521 83.491C20.9889 83.1092 20.3528 82.4728 19.7167 81.8365C19.0807 81.2001 18.5719 80.5637 18.063 79.8001C17.6814 79.0365 17.2998 78.2728 17.0454 77.3819C16.791 76.491 16.6638 75.6001 16.6638 74.5819C16.6638 73.1819 16.9182 71.7819 17.427 70.5092C17.9358 69.2365 18.6991 68.2183 19.5895 67.2001C20.48 66.3092 21.6249 65.5456 22.8969 65.0365C24.169 64.5274 25.4411 64.2728 26.8404 64.2728C27.4764 64.2728 28.1125 64.4001 28.6213 64.5274C29.1301 64.6546 29.639 64.9092 30.1478 65.1637C30.6566 65.4183 31.0383 65.6728 31.4199 66.0546C31.8015 66.4365 32.1831 66.8183 32.4376 67.2001L32.9464 65.8001C33.0022 65.6885 33.0335 65.5769 33.0618 65.476C33.098 65.3468 33.1294 65.2352 33.2008 65.1637C33.2644 65.1001 33.2962 65.0365 33.328 64.9728C33.3598 64.9092 33.3916 64.8456 33.4552 64.7819C33.5824 64.6546 33.5824 64.6546 33.7096 64.6546H36.8898C37.017 64.6546 37.1442 64.7819 37.2715 64.9092C37.3987 65.0365 37.5259 65.1637 37.5259 65.291C37.5259 65.3437 37.5477 65.3964 37.5733 65.4582C37.6094 65.5456 37.6531 65.651 37.6531 65.8001V83.3637H37.7803ZM22.3881 74.5819C22.3881 75.2183 22.5153 75.9819 22.7697 76.491C23.0242 77.1274 23.2786 77.6365 23.6602 78.0183C24.0418 78.4001 24.5507 78.7819 25.0595 79.0365C25.5683 79.291 26.2044 79.4183 26.9676 79.4183C27.7309 79.4183 28.3669 79.291 28.8757 79.0365C29.5118 78.7819 30.0206 78.4001 30.4022 78.0183C30.7838 77.6365 31.1655 77.0001 31.4199 76.491C31.6743 75.8546 31.8015 75.2183 31.8015 74.5819C31.8015 73.9455 31.6743 73.3092 31.4199 72.6728C31.1655 72.0365 30.7839 71.5274 30.4022 71.0183C30.1478 70.6789 29.7803 70.4526 29.4128 70.2264C29.2291 70.1132 29.0453 70.0001 28.8757 69.8728C28.2397 69.6183 27.6036 69.491 26.9676 69.491C26.3316 69.491 25.6955 69.6183 25.0595 69.8728C24.5507 70.1274 24.0418 70.5092 23.6602 71.0183C23.2786 71.5274 22.8969 72.0365 22.7697 72.6728C22.3881 73.1819 22.3881 73.8183 22.3881 74.5819Z" fill="white"/>
<path fill-rule="evenodd" clip-rule="evenodd" d="M42.1685 64.6546C42.1049 64.6864 42.0413 64.7182 41.9777 64.7819C41.8505 64.9092 41.7232 65.0364 41.7232 65.1637C41.596 65.291 41.596 65.4182 41.596 65.6728V89.7273C41.596 89.9819 41.596 90.1091 41.7232 90.2364C41.7232 90.3637 41.8505 90.491 41.9777 90.6182C42.1049 90.7455 42.2321 90.8728 42.3593 90.8728C42.4865 91.0001 42.6137 91.0001 42.7409 91.0001H46.3027C46.6844 91.0001 47.066 90.8728 47.1932 90.6182C47.3204 90.491 47.4476 90.1091 47.4476 89.8546V82.4728L48.3381 83.3637C48.5925 83.7455 48.9741 84.0001 49.3557 84.2546C49.7374 84.5091 50.119 84.7637 50.6278 84.891C51.1366 85.0182 51.7727 85.1455 52.4087 85.1455C53.808 85.1455 55.0801 84.891 56.3522 84.3819C57.6243 83.8728 58.6419 83.1091 59.5324 82.2182C60.4228 81.2001 61.0589 80.1819 61.5677 78.9091C62.0765 77.6364 62.331 76.2364 62.331 74.8364C62.331 73.3092 62.0765 72.0364 61.5677 70.7637C61.0589 69.491 60.4228 68.3455 59.5324 67.4546C58.6419 66.5637 57.6243 65.8001 56.3522 65.291C55.2073 64.7819 53.808 64.5273 52.4087 64.5273C51.6455 64.5273 50.8822 64.5273 50.3734 64.7819C49.8646 64.9092 49.3557 65.1637 48.9741 65.5455C48.5925 65.8001 48.2109 66.1819 47.9564 66.5637C47.8292 66.7546 47.6702 66.9455 47.5112 67.1364C47.3522 67.3273 47.1932 67.5182 47.066 67.7092L46.4299 65.8001C46.4299 65.651 46.3863 65.5455 46.3501 65.4582C46.3246 65.3964 46.3027 65.3437 46.3027 65.291C46.2391 65.2273 46.2073 65.1637 46.1755 65.1001C46.1437 65.0364 46.1119 64.9728 46.0483 64.9092C45.9211 64.7819 45.7939 64.6546 45.6667 64.6546C45.5395 64.5273 45.4123 64.5273 45.1579 64.5273H42.3593C42.2957 64.591 42.2321 64.6228 42.1685 64.6546ZM56.225 72.6728C56.4794 73.3091 56.6066 73.9455 56.6066 74.5819C56.6066 74.9905 56.3968 75.5041 56.2129 75.9541C56.1105 76.2049 56.0161 76.436 55.9705 76.6182C55.8433 77.1273 55.4617 77.7637 55.0801 78.1455C54.6985 78.5273 54.1896 78.9091 53.6808 79.1637C53.172 79.4182 52.5359 79.5455 51.8999 79.5455C51.2638 79.5455 50.6278 79.4182 49.9918 79.1637C49.4829 78.9091 48.9741 78.5273 48.4653 78.1455C48.0836 77.7637 47.702 77.2546 47.4476 76.6182C47.1932 76.1092 47.066 75.3455 47.066 74.7092V74.4546C47.1932 73.8182 47.3204 73.3091 47.5748 72.6728C47.9564 72.0364 48.3381 71.5273 48.7197 71.1455C49.1013 70.7637 49.6101 70.3819 50.2462 70.1273C50.8822 69.8728 51.5183 69.7455 52.1543 69.7455C52.7903 69.7455 53.4264 69.8728 53.9352 70.1273C54.4441 70.3819 54.9529 70.6364 55.3345 71.1455C55.7161 71.5273 55.9705 72.0364 56.225 72.6728Z" fill="white"/>
<path fill-rule="evenodd" clip-rule="evenodd" d="M66.0205 64.7819C66.0841 64.7182 66.1477 64.6864 66.2113 64.6546C66.2749 64.6228 66.3385 64.591 66.4021 64.5273H69.2007C69.4551 64.5273 69.5823 64.5273 69.7095 64.6546C69.8367 64.6546 69.9639 64.7819 70.0911 64.9092C70.1547 64.9728 70.1865 65.0364 70.2184 65.1001C70.2502 65.1637 70.282 65.2273 70.3456 65.291C70.3456 65.3437 70.3674 65.3964 70.393 65.4582C70.4291 65.5455 70.4728 65.651 70.4728 65.8001L71.1088 67.7092C71.236 67.5183 71.395 67.3274 71.5539 67.1366C71.7129 66.9457 71.8721 66.7546 71.9993 66.5637C72.2537 66.1819 72.6353 65.8001 73.0169 65.5455C73.3986 65.1637 73.9074 64.9092 74.4162 64.7819C74.9251 64.5273 75.6883 64.5273 76.4515 64.5273C77.8508 64.5273 79.2501 64.7819 80.395 65.291C81.6671 65.8001 82.6847 66.5637 83.5752 67.4546C84.4657 68.3455 85.1017 69.491 85.6105 70.7637C86.1194 72.0364 86.3738 73.3092 86.3738 74.8364C86.3738 76.2364 86.1194 77.6364 85.6105 78.9091C85.1017 80.1819 84.4657 81.2001 83.5752 82.2182C82.6847 83.1091 81.6671 83.8728 80.395 84.3819C79.1229 84.891 77.8508 85.1455 76.4515 85.1455C75.8155 85.1455 75.1795 85.0182 74.6706 84.891C74.1618 84.7637 73.7802 84.5091 73.3986 84.2546C73.0169 84.0001 72.6353 83.7455 72.3809 83.3637L71.4904 82.4728V89.8546C71.4904 90.1091 71.3632 90.491 71.236 90.6182C71.1088 90.7455 70.7272 91.0001 70.3456 91.0001H66.7837C66.6565 91.0001 66.5293 91.0001 66.4021 90.8728C66.2749 90.8728 66.1477 90.7455 66.0205 90.6183C65.8933 90.491 65.7661 90.3637 65.7661 90.2364C65.6389 90.1091 65.6389 89.9819 65.6389 89.7273V65.6728C65.6389 65.4182 65.6389 65.291 65.7661 65.1637C65.7661 65.0364 65.8933 64.9092 66.0205 64.7819ZM80.6494 74.5819C80.6494 73.9455 80.5222 73.3091 80.2678 72.6728C80.0134 72.0364 79.759 71.5273 79.3773 71.1455C78.9957 70.6364 78.4869 70.3819 77.978 70.1273C77.4692 69.8728 76.8332 69.7455 76.1971 69.7455C75.5611 69.7455 74.9251 69.8728 74.289 70.1273C73.653 70.3819 73.1441 70.7637 72.7625 71.1455C72.3809 71.5273 71.9993 72.0364 71.6176 72.6728C71.3632 73.3091 71.236 73.8182 71.1088 74.4546V74.7092C71.1088 75.3455 71.236 76.1092 71.4904 76.6182C71.7449 77.1273 72.1265 77.7637 72.5081 78.1455C73.0169 78.5273 73.5258 78.9091 74.0346 79.1637C74.6706 79.4182 75.3067 79.5455 75.9427 79.5455C76.5788 79.5455 77.2148 79.4182 77.7236 79.1637C78.2325 78.9091 78.7413 78.5273 79.1229 78.1455C79.5045 77.7637 79.8862 77.1273 80.0134 76.6182C80.0589 76.436 80.1533 76.2049 80.2558 75.9541C80.4396 75.5041 80.6494 74.9905 80.6494 74.5819Z" fill="white"/>
<path fill-rule="evenodd" clip-rule="evenodd" d="M103.166 84.1273C104.311 83.6183 105.329 82.9819 106.219 82.091C106.474 81.9637 106.601 81.8364 106.474 81.7092C106.601 81.5819 106.601 81.4546 106.601 81.2001V80.8183C106.537 80.7546 106.505 80.691 106.474 80.6273C106.442 80.5637 106.41 80.5001 106.346 80.4364L104.693 78.5273C104.438 78.4001 104.311 78.2728 104.184 78.1455C104.057 78.0183 103.929 78.0183 103.802 78.0183C103.675 78.0183 103.548 78.0183 103.421 78.1455C103.293 78.1455 103.166 78.2728 103.039 78.4001C102.912 78.4637 102.785 78.5592 102.657 78.6546C102.53 78.7501 102.403 78.8455 102.276 78.9092C102.021 79.1637 101.64 79.291 101.258 79.4183C101.067 79.4819 100.876 79.5137 100.686 79.5455C100.495 79.5773 100.304 79.6092 100.113 79.6728C99.7316 79.8001 99.35 79.8001 98.9684 79.8001C98.5867 79.8001 98.2051 79.8001 97.6963 79.6728C97.3147 79.5455 96.8058 79.291 96.4242 79.0364C95.9154 78.7819 95.6609 78.5273 95.2793 78.0183C94.8977 77.6364 94.7705 77.0001 94.6433 76.3637H107.618C108 76.3637 108.255 76.2364 108.382 75.9819C108.509 75.8546 108.636 75.6001 108.636 75.2183V73.9455C108.636 73.1819 108.509 72.291 108.255 71.5273C108 70.6364 107.619 69.8728 107.237 69.2364C106.855 68.6001 106.346 67.9637 105.71 67.3274C105.202 66.691 104.566 66.1819 103.802 65.8001C103.039 65.291 102.276 65.0364 101.513 64.7819C100.622 64.5274 99.8588 64.4001 98.9684 64.4001C98.0779 64.4001 97.1874 64.5274 96.297 64.7819C95.4065 65.0364 94.6433 65.291 93.88 65.8001C93.1168 66.3092 92.4808 66.8183 91.8447 67.4546C91.2087 68.091 90.6998 68.7273 90.3182 69.491C89.8094 70.2546 89.555 71.0183 89.3005 71.9092C89.0461 72.8001 88.9189 73.691 88.9189 74.5819C88.9189 75.9819 89.3005 77.3819 89.8094 78.6546C90.3182 79.9273 91.0815 81.0728 92.0991 81.9637C92.9896 82.8546 94.1345 83.6183 95.4065 84.1273C96.6786 84.6364 98.0779 84.891 99.4772 84.891C100.749 84.891 102.021 84.6364 103.166 84.1273ZM97.5691 69.2364C97.9507 69.1092 98.3323 68.9819 98.7139 68.9819C98.9684 68.9819 99.2228 69.0137 99.4772 69.0455C99.7316 69.0773 99.986 69.1092 100.24 69.1092C100.622 69.2364 101.004 69.4909 101.385 69.7455C101.767 70 102.021 70.2546 102.276 70.6364L103.039 71.7819H95.0249C95.1142 71.514 95.266 71.3088 95.4366 71.0783C95.5091 70.9803 95.585 70.8777 95.6609 70.7637L96.5514 69.8728C96.8058 69.6183 97.1874 69.3637 97.5691 69.2364Z" fill="white"/>
<path d="M111.815 65.6729C111.815 65.4183 111.815 65.291 111.943 65.1638C112.006 65.1001 112.038 65.0365 112.07 64.9729C112.102 64.9092 112.133 64.8456 112.197 64.7819C112.261 64.7183 112.324 64.6865 112.388 64.6547C112.451 64.6229 112.515 64.591 112.579 64.5274C112.631 64.5274 112.684 64.5056 112.746 64.48C112.833 64.4438 112.938 64.4001 113.087 64.4001H115.504C115.759 64.4001 116.013 64.5274 116.14 64.6547C116.268 64.7819 116.395 65.0364 116.522 65.2909C116.649 65.5454 116.777 65.8002 116.777 66.0547C116.84 66.1819 116.872 66.341 116.904 66.5001C116.936 66.6592 116.967 66.8183 117.031 66.9456C117.158 66.7547 117.317 66.5956 117.476 66.4365C117.635 66.2775 117.794 66.1183 117.921 65.9274C118.176 65.5456 118.557 65.291 118.939 65.0365C119.321 64.7819 119.702 64.5274 120.084 64.4001C120.466 64.2729 120.974 64.1456 121.483 64.1456C121.992 64.1456 122.501 64.1456 123.01 64.2729C123.201 64.3365 123.423 64.4001 123.646 64.4638C123.868 64.5274 124.091 64.591 124.282 64.6547C124.663 64.7819 125.045 65.0365 125.427 65.291C125.808 65.5456 126.19 65.8001 126.699 66.1819C127.208 66.4365 127.335 66.691 127.335 67.0729C127.335 67.3274 127.208 67.5819 127.08 67.8365L125.681 70.2547C125.427 70.6365 125.045 70.891 124.663 70.891C124.409 70.891 124.282 70.891 123.9 70.7638C123.743 70.6456 123.597 70.5274 123.457 70.413C123.143 70.1578 122.852 69.9213 122.501 69.7456C121.992 69.491 121.483 69.3638 120.847 69.3638C120.466 69.3638 120.084 69.3638 119.829 69.491C119.769 69.5211 119.702 69.5511 119.631 69.5828C119.402 69.6855 119.133 69.8057 118.939 70.0001L118.176 70.7638C118.022 70.9179 117.914 71.1187 117.797 71.3379C117.721 71.4807 117.64 71.6314 117.54 71.7819V83.1092C117.54 83.491 117.413 83.7456 117.285 84.0001C117.031 84.2547 116.776 84.2547 116.268 84.2547H112.706C111.943 84.2547 111.434 83.8728 111.434 82.9819V65.6729H111.815Z" fill="white"/>
<path d="M132.488 78.6546C132.329 78.5274 132.17 78.4001 132.042 78.2728C131.788 78.0183 131.534 77.7637 131.406 78.0183C131.279 78.0183 131.025 78.0183 130.77 78.2728L128.735 80.3092C128.608 80.4365 128.481 80.5637 128.481 80.691C128.353 80.8183 128.353 80.9455 128.353 81.0728C128.353 81.1365 128.385 81.2319 128.417 81.3274C128.449 81.4228 128.481 81.5183 128.481 81.5819C128.481 81.8365 128.608 81.9637 128.735 82.091C129.244 82.7274 129.753 83.2365 130.262 83.6183C130.77 84.0001 131.406 84.3819 132.042 84.6365C132.678 84.891 133.315 85.0183 133.951 85.1455C134.714 85.2728 135.35 85.2728 135.986 85.2728C137.131 85.2728 138.148 85.1455 139.166 84.891C140.184 84.6364 140.947 84.1274 141.71 83.6183C142.346 83.1092 142.982 82.3455 143.364 81.5819C143.746 80.691 144 79.8001 144 78.7819C144 77.7637 143.873 76.8728 143.491 76.1092C143.11 75.3455 142.728 74.7092 142.092 74.2001C141.583 73.691 140.82 73.3092 140.057 72.9274C139.293 72.5455 138.403 72.1637 137.512 71.9092C137.385 71.7819 137.004 71.6546 136.749 71.6546C136.582 71.5988 136.439 71.5675 136.31 71.5392C136.144 71.5029 136.002 71.4716 135.859 71.4001C135.604 71.2728 135.35 71.1455 135.223 71.0183C135.095 70.891 134.968 70.6365 134.968 70.3819C134.968 70.1274 135.095 69.7456 135.35 69.6183C135.731 69.491 136.113 69.3637 136.622 69.3637C136.924 69.3637 137.226 69.4434 137.591 69.5397C137.687 69.5652 137.788 69.5917 137.894 69.6183C138.403 69.7456 138.784 70.0001 139.166 70.3819C139.166 70.4606 139.215 70.4906 139.282 70.5321C139.323 70.5578 139.372 70.5878 139.421 70.6365C139.484 70.6365 139.548 70.6683 139.611 70.7001C139.675 70.7319 139.739 70.7637 139.802 70.7637H140.184C140.247 70.7001 140.311 70.6683 140.375 70.6365C140.438 70.6046 140.502 70.5728 140.565 70.5092C140.82 70.1698 141.074 69.9435 141.329 69.7172C141.456 69.6041 141.583 69.491 141.71 69.3637C141.901 69.1728 142.092 69.0137 142.283 68.8546C142.474 68.6955 142.664 68.5365 142.855 68.3456C143.11 68.091 143.237 67.8365 143.237 67.7092C143.237 67.5228 143.169 67.4047 143.082 67.2549C143.051 67.2001 143.016 67.141 142.982 67.0728C142.474 66.5637 141.965 66.1819 141.456 65.8001C140.947 65.4183 140.438 65.1637 139.929 64.9092C139.421 64.6546 138.912 64.5274 138.276 64.4001C137.64 64.2728 137.004 64.2728 136.368 64.2728C135.35 64.2728 134.332 64.4001 133.442 64.6546C132.551 64.9092 131.788 65.291 131.152 65.8001C130.516 66.3092 130.007 66.8183 129.626 67.5819C129.244 68.3455 129.117 69.1092 129.117 70.0001C129.117 70.7637 129.244 71.5274 129.371 72.1637C129.625 72.9274 130.007 73.5637 130.389 74.0728C130.77 74.5819 131.534 75.091 132.297 75.6001C133.06 76.1092 134.078 76.491 135.35 76.8728C135.541 76.9365 135.7 77.0001 135.859 77.0637C136.018 77.1274 136.177 77.191 136.368 77.2546C136.452 77.2971 136.537 77.3536 136.622 77.4102C136.792 77.5233 136.961 77.6365 137.131 77.6365C137.325 77.6365 137.445 77.785 137.548 77.9119C137.58 77.9511 137.61 77.9882 137.64 78.0183C137.767 78.1455 137.767 78.4001 137.767 78.6546C137.767 79.0365 137.767 79.291 137.512 79.4183L136.749 79.8001C136.495 79.9274 136.113 79.9274 135.859 79.9274H135.095C135.043 79.9274 134.99 79.9055 134.928 79.8799C134.841 79.8438 134.736 79.8001 134.587 79.8001C134.332 79.8001 134.078 79.6728 133.823 79.5455C133.569 79.4183 133.315 79.291 132.933 79.0365C132.806 78.9092 132.647 78.7819 132.488 78.6546Z" fill="white"/>
</svg>
